# Created by FreeCAD <http://www.freecadweb.org>
v 20.000000 25.000000 -13.000000
v -20.000000 25.000000 -13.000000
v -20.000000 25.000000 13.000000
v 20.000000 25.000000 13.000000
v -20.000000 -25.000000 -13.000000
v -20.000000 -25.000000 13.000000
v 20.000000 13.000000 -13.000000
v 20.000000 13.000000 13.000000
v 18.000000 -15.000000 -13.000000
v 20.000000 -13.000000 -13.000000
v 20.000000 -25.000000 -13.000000
v 18.000000 -23.000000 -13.000000
v 14.000000 6.000000 -13.000000
v 12.000000 -4.000000 -13.000000
v 12.000000 4.000000 -13.000000
v 14.000000 -6.000000 -13.000000
v -18.000000 -23.000000 -13.000000
v 18.000000 23.000000 -13.000000
v 18.000000 15.000000 -13.000000
v -10.000000 -4.000000 -13.000000
v -8.000000 -6.000000 -13.000000
v -8.000000 -13.000000 -13.000000
v -10.000000 -15.000000 -13.000000
v -10.000000 15.000000 -13.000000
v -8.000000 13.000000 -13.000000
v -8.000000 6.000000 -13.000000
v -10.000000 4.000000 -13.000000
v -18.000000 23.000000 -13.000000
v 20.000000 -13.000000 13.000000
v 18.000000 -15.000000 13.000000
v 20.000000 -25.000000 13.000000
v 18.000000 -23.000000 13.000000
v 12.000000 -4.000000 13.000000
v 14.000000 6.000000 13.000000
v 12.000000 4.000000 13.000000
v 14.000000 -6.000000 13.000000
v -18.000000 -23.000000 13.000000
v 18.000000 23.000000 13.000000
v 18.000000 15.000000 13.000000
v -8.000000 -6.000000 13.000000
v -10.000000 -4.000000 13.000000
v -8.000000 -13.000000 13.000000
v -10.000000 -15.000000 13.000000
v -8.000000 13.000000 13.000000
v -10.000000 15.000000 13.000000
v -8.000000 6.000000 13.000000
v -10.000000 4.000000 13.000000
v -18.000000 23.000000 13.000000
v 18.000000 23.000000 -11.000000
v -18.000000 23.000000 -11.000000
v 18.000000 15.000000 -11.000000
v -10.000000 15.000000 -11.000000
v -10.000000 4.000000 -11.000000
v 12.000000 4.000000 -11.000000
v 12.000000 -4.000000 -11.000000
v -10.000000 -4.000000 -11.000000
v -10.000000 -15.000000 -11.000000
v 18.000000 -15.000000 -11.000000
v 18.000000 -23.000000 -11.000000
v -18.000000 -23.000000 -11.000000
v 18.000000 23.000000 11.000000
v -18.000000 23.000000 11.000000
v 18.000000 15.000000 11.000000
v -10.000000 15.000000 11.000000
v -10.000000 4.000000 11.000000
v 12.000000 4.000000 11.000000
v 12.000000 -4.000000 11.000000
v -10.000000 -4.000000 11.000000
v -10.000000 -15.000000 11.000000
v 18.000000 -15.000000 11.000000
v 18.000000 -23.000000 11.000000
v -18.000000 -23.000000 11.000000
vn 0.000000 1.000000 0.000000
vn 0.000000 1.000000 -0.000000
vn -1.000000 0.000000 0.000000
vn -1.000000 0.000000 0.000000
vn 1.000000 0.000000 0.000000
vn 1.000000 0.000000 0.000000
vn 0.000000 0.000000 -1.000000
vn 0.000000 0.000000 -1.000000
vn 0.000000 0.000000 -1.000000
vn 0.000000 -0.000000 -1.000000
vn 0.000000 0.000000 -1.000000
vn 0.000000 -0.000000 -1.000000
vn 0.000000 0.000000 -1.000000
vn 0.000000 0.000000 -1.000000
vn 0.000000 0.000000 -1.000000
vn 0.000000 0.000000 -1.000000
vn 0.000000 0.000000 -1.000000
vn 0.000000 0.000000 -1.000000
vn 0.000000 0.000000 -1.000000
vn 0.000000 0.000000 -1.000000
vn 0.000000 0.000000 -1.000000
vn 0.000000 0.000000 -1.000000
vn 0.000000 0.000000 -1.000000
vn 0.000000 0.000000 -1.000000
vn 0.000000 0.000000 -1.000000
vn 0.000000 0.000000 -1.000000
vn 0.000000 0.000000 -1.000000
vn 0.000000 0.000000 -1.000000
vn 0.000000 -0.000000 -1.000000
vn -0.000000 0.000000 -1.000000
vn 0.000000 0.000000 1.000000
vn 0.000000 0.000000 1.000000
vn 0.000000 0.000000 1.000000
vn 0.000000 -0.000000 1.000000
vn 0.000000 0.000000 1.000000
vn 0.000000 0.000000 1.000000
vn 0.000000 0.000000 1.000000
vn 0.000000 0.000000 1.000000
vn 0.000000 0.000000 1.000000
vn 0.000000 0.000000 1.000000
vn 0.000000 0.000000 1.000000
vn 0.000000 0.000000 1.000000
vn 0.000000 0.000000 1.000000
vn 0.000000 0.000000 1.000000
vn 0.000000 0.000000 1.000000
vn 0.000000 0.000000 1.000000
vn 0.000000 0.000000 1.000000
vn 0.000000 0.000000 1.000000
vn 0.000000 0.000000 1.000000
vn 0.000000 0.000000 1.000000
vn 0.000000 0.000000 1.000000
vn 0.000000 0.000000 1.000000
vn 0.000000 -0.000000 1.000000
vn 0.000000 0.000000 1.000000
vn 0.000000 -1.000000 0.000000
vn 0.000000 -1.000000 0.000000
vn 0.000000 -1.000000 0.000000
vn 0.000000 -1.000000 0.000000
vn 1.000000 0.000000 0.000000
vn 1.000000 0.000000 0.000000
vn 1.000000 0.000000 0.000000
vn 1.000000 0.000000 0.000000
vn 0.000000 1.000000 0.000000
vn 0.000000 1.000000 -0.000000
vn 0.000000 1.000000 0.000000
vn 0.000000 1.000000 -0.000000
vn 1.000000 0.000000 -0.000000
vn 1.000000 0.000000 0.000000
vn 1.000000 0.000000 0.000000
vn 1.000000 0.000000 0.000000
vn 0.000000 -1.000000 0.000000
vn 0.000000 -1.000000 0.000000
vn 0.000000 -1.000000 0.000000
vn 0.000000 -1.000000 0.000000
vn -1.000000 0.000000 0.000000
vn -1.000000 -0.000000 0.000000
vn 0.000000 1.000000 -0.000000
vn 0.000000 1.000000 0.000000
vn -1.000000 0.000000 0.000000
vn -1.000000 -0.000000 0.000000
vn 0.000000 -1.000000 0.000000
vn 0.000000 -1.000000 0.000000
vn -1.000000 0.000000 0.000000
vn -1.000000 -0.000000 0.000000
vn 0.000000 1.000000 -0.000000
vn 0.000000 1.000000 0.000000
vn -1.000000 0.000000 0.000000
vn -1.000000 -0.000000 0.000000
vn 0.000000 -1.000000 0.000000
vn 0.000000 -1.000000 0.000000
vn -1.000000 0.000000 0.000000
vn -1.000000 -0.000000 0.000000
vn 0.000000 1.000000 -0.000000
vn 0.000000 1.000000 0.000000
vn 1.000000 0.000000 0.000000
vn 1.000000 -0.000000 0.000000
vn 0.000000 -1.000000 0.000000
vn -0.000000 -1.000000 -0.000000
vn -1.000000 0.000000 0.000000
vn -1.000000 0.000000 0.000000
vn 0.000000 1.000000 0.000000
vn -0.000000 1.000000 0.000000
vn -1.000000 0.000000 0.000000
vn -1.000000 0.000000 0.000000
vn -0.000000 -1.000000 0.000000
vn 0.000000 -1.000000 -0.000000
vn -1.000000 0.000000 0.000000
vn -1.000000 0.000000 0.000000
vn -0.000000 1.000000 0.000000
vn 0.000000 1.000000 0.000000
vn -1.000000 0.000000 0.000000
vn -1.000000 0.000000 0.000000
vn 0.000000 -1.000000 0.000000
vn -0.000000 -1.000000 -0.000000
vn -1.000000 0.000000 0.000000
vn -1.000000 0.000000 0.000000
vn 0.000000 1.000000 0.000000
vn -0.000000 1.000000 0.000000
vn 1.000000 0.000000 0.000000
vn 1.000000 0.000000 0.000000
vn 0.000000 0.000000 -1.000000
vn 0.000000 0.000000 -1.000000
vn 0.000000 -0.000000 -1.000000
vn 0.000000 0.000000 -1.000000
vn 0.000000 0.000000 -1.000000
vn 0.000000 -0.000000 -1.000000
vn 0.000000 0.000000 -1.000000
vn 0.000000 0.000000 -1.000000
vn 0.000000 0.000000 -1.000000
vn 0.000000 0.000000 -1.000000
vn 0.000000 0.000000 1.000000
vn 0.000000 0.000000 1.000000
vn 0.000000 -0.000000 1.000000
vn 0.000000 0.000000 1.000000
vn 0.000000 0.000000 1.000000
vn 0.000000 -0.000000 1.000000
vn 0.000000 0.000000 1.000000
vn 0.000000 0.000000 1.000000
vn 0.000000 0.000000 1.000000
vn 0.000000 0.000000 1.000000
f 1//1 2//1 3//1
f 1//2 3//2 4//2
f 2//3 5//3 6//3
f 2//4 6//4 3//4
f 7//5 1//5 4//5
f 7//6 4//6 8//6
f 9//7 10//7 11//7
f 9//8 11//8 12//8
f 13//9 14//9 15//9
f 13//10 16//10 14//10
f 5//11 12//11 11//11
f 17//12 12//12 5//12
f 18//13 1//13 7//13
f 18//14 7//14 19//14
f 20//15 21//15 22//15
f 20//16 22//16 23//16
f 24//17 25//17 26//17
f 24//18 26//18 27//18
f 2//19 18//19 28//19
f 2//20 1//20 18//20
f 7//21 25//21 19//21
f 22//22 10//22 9//22
f 26//23 13//23 15//23
f 16//24 21//24 14//24
f 24//25 19//25 25//25
f 15//26 27//26 26//26
f 20//27 14//27 21//27
f 9//28 23//28 22//28
f 28//29 17//29 5//29
f 28//30 5//30 2//30
f 29//31 30//31 31//31
f 31//32 30//32 32//32
f 33//33 34//33 35//33
f 36//34 34//34 33//34
f 32//35 6//35 31//35
f 32//36 37//36 6//36
f 4//37 38//37 8//37
f 8//38 38//38 39//38
f 40//39 41//39 42//39
f 42//40 41//40 43//40
f 44//41 45//41 46//41
f 46//42 45//42 47//42
f 38//43 3//43 48//43
f 4//44 3//44 38//44
f 44//45 8//45 39//45
f 29//46 42//46 30//46
f 34//47 46//47 35//47
f 40//48 36//48 33//48
f 39//49 45//49 44//49
f 47//50 35//50 46//50
f 33//51 41//51 40//51
f 43//52 30//52 42//52
f 37//53 48//53 6//53
f 6//54 48//54 3//54
f 5//55 11//55 31//55
f 5//56 31//56 6//56
f 25//57 7//57 8//57
f 25//58 8//58 44//58
f 11//59 10//59 29//59
f 11//60 29//60 31//60
f 26//61 25//61 44//61
f 26//62 44//62 46//62
f 10//63 22//63 42//63
f 10//64 42//64 29//64
f 26//65 46//65 34//65
f 13//66 26//66 34//66
f 21//67 40//67 42//67
f 22//68 21//68 42//68
f 16//69 13//69 34//69
f 16//70 34//70 36//70
f 16//71 36//71 40//71
f 21//72 16//72 40//72
f 28//73 49//73 50//73
f 28//74 18//74 49//74
f 18//75 19//75 49//75
f 49//76 19//76 51//76
f 19//77 52//77 51//77
f 19//78 24//78 52//78
f 24//79 27//79 52//79
f 52//80 27//80 53//80
f 27//81 15//81 53//81
f 53//82 15//82 54//82
f 15//83 14//83 54//83
f 54//84 14//84 55//84
f 14//85 20//85 55//85
f 55//86 20//86 56//86
f 20//87 23//87 56//87
f 56//88 23//88 57//88
f 23//89 58//89 57//89
f 23//90 9//90 58//90
f 9//91 12//91 58//91
f 58//92 12//92 59//92
f 12//93 60//93 59//93
f 12//94 17//94 60//94
f 17//95 28//95 60//95
f 60//96 28//96 50//96
f 61//97 48//97 62//97
f 38//98 48//98 61//98
f 39//99 38//99 61//99
f 39//100 61//100 63//100
f 64//101 39//101 63//101
f 45//102 39//102 64//102
f 47//103 45//103 64//103
f 47//104 64//104 65//104
f 35//105 47//105 65//105
f 35//106 65//106 66//106
f 33//107 35//107 66//107
f 33//108 66//108 67//108
f 41//109 33//109 67//109
f 41//110 67//110 68//110
f 43//111 41//111 68//111
f 43//112 68//112 69//112
f 70//113 43//113 69//113
f 30//114 43//114 70//114
f 32//115 30//115 70//115
f 32//116 70//116 71//116
f 72//117 32//117 71//117
f 37//118 32//118 72//118
f 48//119 37//119 72//119
f 48//120 72//120 62//120
f 57//121 58//121 59//121
f 60//122 57//122 59//122
f 56//123 57//123 60//123
f 53//124 54//124 55//124
f 53//125 55//125 56//125
f 53//126 56//126 60//126
f 52//127 49//127 51//127
f 50//128 52//128 53//128
f 50//129 49//129 52//129
f 50//130 53//130 60//130
f 70//131 69//131 71//131
f 69//132 72//132 71//132
f 69//133 68//133 72//133
f 66//134 65//134 67//134
f 67//135 65//135 68//135
f 68//136 65//136 72//136
f 61//137 64//137 63//137
f 64//138 62//138 65//138
f 61//139 62//139 64//139
f 65//140 62//140 72//140
