# Created by FreeCAD <http://www.freecadweb.org>
v 2.071068 -0.000000 -5.000000
v 5.000000 -0.000000 -2.071068
v 2.071068 -1.000000 -5.000000
v 5.000000 -1.000000 -2.071068
v 5.000000 0.000000 2.071068
v 5.000000 -1.000000 2.071068
v 2.071068 0.000000 5.000000
v 2.071068 -1.000000 5.000000
v -2.071068 0.000000 5.000000
v -2.071068 -1.000000 5.000000
v -5.000000 0.000000 2.071068
v -5.000000 -1.000000 2.071068
v -5.000000 -0.000000 -2.071068
v -5.000000 -1.000000 -2.071068
v -2.071068 -0.000000 -5.000000
v -2.071068 -1.000000 -5.000000
v 1.656854 -0.000000 -4.000000
v -1.656854 -0.000000 -4.000000
v -1.656854 -1.000000 -4.000000
v 1.656854 -1.000000 -4.000000
v -4.000000 -0.000000 -1.656854
v -4.000000 -1.000000 -1.656854
v -4.000000 0.000000 1.656854
v -4.000000 -1.000000 1.656854
v -1.656854 0.000000 4.000000
v -1.656854 -1.000000 4.000000
v 1.656854 0.000000 4.000000
v 1.656854 -1.000000 4.000000
v 4.000000 0.000000 1.656854
v 4.000000 -1.000000 1.656854
v 4.000000 -0.000000 -1.656854
v 4.000000 -1.000000 -1.656854
v -4.000000 -1.000000 -1.656854
v -1.656854 -1.000000 -4.000000
v 1.656854 -1.000000 -4.000000
v 4.000000 -1.000000 -1.656854
vn 0.707107 0.000000 -0.707107
vn 0.707107 0.000000 -0.707107
vn 1.000000 0.000000 -0.000000
vn 1.000000 0.000000 0.000000
vn 0.707107 0.000000 0.707107
vn 0.707107 0.000000 0.707107
vn 0.000000 0.000000 1.000000
vn 0.000000 0.000000 1.000000
vn -0.707107 0.000000 0.707107
vn -0.707107 0.000000 0.707107
vn -1.000000 -0.000000 0.000000
vn -1.000000 0.000000 0.000000
vn -0.707107 -0.000000 -0.707107
vn -0.707107 0.000000 -0.707107
vn 0.000000 0.000000 -1.000000
vn 0.000000 0.000000 -1.000000
vn 0.000000 0.000000 1.000000
vn 0.000000 0.000000 1.000000
vn 0.707107 0.000000 0.707107
vn 0.707107 0.000000 0.707107
vn 1.000000 0.000000 -0.000000
vn 1.000000 0.000000 0.000000
vn 0.707107 0.000000 -0.707107
vn 0.707107 0.000000 -0.707107
vn 0.000000 0.000000 -1.000000
vn 0.000000 0.000000 -1.000000
vn -0.707107 0.000000 -0.707107
vn -0.707107 -0.000000 -0.707107
vn -1.000000 0.000000 0.000000
vn -1.000000 -0.000000 0.000000
vn -0.707107 0.000000 0.707107
vn -0.707107 0.000000 0.707107
vn 0.000000 1.000000 -0.000000
vn -0.000000 1.000000 -0.000000
vn -0.000000 1.000000 -0.000000
vn 0.000000 1.000000 -0.000000
vn 0.000000 1.000000 -0.000000
vn 0.000000 1.000000 -0.000000
vn -0.000000 1.000000 -0.000000
vn 0.000000 1.000000 -0.000000
vn 0.000000 1.000000 -0.000000
vn 0.000000 1.000000 -0.000000
vn 0.000000 1.000000 -0.000000
vn 0.000000 1.000000 -0.000000
vn 0.000000 1.000000 -0.000000
vn 0.000000 1.000000 -0.000000
vn -0.000000 1.000000 -0.000000
vn 0.000000 1.000000 -0.000000
vn -0.000000 -1.000000 0.000000
vn 0.000000 -1.000000 0.000000
vn 0.000000 -1.000000 0.000000
vn 0.000000 -1.000000 0.000000
vn 0.000000 -1.000000 0.000000
vn -0.000000 -1.000000 0.000000
vn 0.000000 -1.000000 0.000000
vn 0.000000 -1.000000 0.000000
vn -0.000000 -1.000000 0.000000
vn 0.000000 -1.000000 0.000000
vn -0.000000 -1.000000 0.000000
vn 0.000000 -1.000000 0.000000
vn 0.000000 -1.000000 0.000000
vn 0.000000 -1.000000 0.000000
vn -0.000000 -1.000000 0.000000
vn 0.000000 -1.000000 0.000000
f 1//1 2//1 3//1
f 3//2 2//2 4//2
f 2//3 5//3 4//3
f 4//4 5//4 6//4
f 5//5 7//5 6//5
f 6//6 7//6 8//6
f 7//7 9//7 8//7
f 8//8 9//8 10//8
f 9//9 11//9 10//9
f 10//10 11//10 12//10
f 11//11 13//11 12//11
f 12//12 13//12 14//12
f 13//13 15//13 14//13
f 14//14 15//14 16//14
f 15//15 1//15 16//15
f 16//16 1//16 3//16
f 17//17 18//17 19//17
f 17//18 19//18 20//18
f 18//19 21//19 22//19
f 18//20 22//20 19//20
f 21//21 23//21 24//21
f 21//22 24//22 22//22
f 23//23 25//23 26//23
f 23//24 26//24 24//24
f 25//25 27//25 28//25
f 25//26 28//26 26//26
f 27//27 29//27 30//27
f 27//28 30//28 28//28
f 29//29 31//29 32//29
f 29//30 32//30 30//30
f 31//31 17//31 20//31
f 31//32 20//32 32//32
f 9//33 25//33 11//33
f 25//34 23//34 11//34
f 23//35 13//35 11//35
f 7//36 27//36 9//36
f 9//37 27//37 25//37
f 23//38 21//38 13//38
f 18//39 15//39 21//39
f 21//40 15//40 13//40
f 27//41 5//41 29//41
f 7//42 5//42 27//42
f 18//43 17//43 15//43
f 31//44 1//44 17//44
f 17//45 1//45 15//45
f 29//46 2//46 31//46
f 31//47 2//47 1//47
f 5//48 2//48 29//48
f 26//49 10//49 12//49
f 24//50 26//50 12//50
f 14//51 24//51 12//51
f 28//52 8//52 10//52
f 28//53 10//53 26//53
f 33//54 24//54 14//54
f 16//55 34//55 33//55
f 16//56 33//56 14//56
f 6//57 28//57 30//57
f 6//58 8//58 28//58
f 35//59 34//59 16//59
f 3//60 36//60 35//60
f 3//61 35//61 16//61
f 4//62 30//62 36//62
f 4//63 36//63 3//63
f 4//64 6//64 30//64
