# Created by FreeCAD <http://www.freecadweb.org>
v 0.828427 0.000000 -2.000000
v 2.000000 0.000000 -0.828427
v 0.828427 -1.000000 -2.000000
v 2.000000 -1.000000 -0.828427
v 2.000000 -0.000000 0.828427
v 2.000000 -1.000000 0.828427
v 0.828427 -0.000000 2.000000
v 0.828427 -1.000000 2.000000
v -0.828427 -0.000000 2.000000
v -0.828427 -1.000000 2.000000
v -2.000000 -0.000000 0.828427
v -2.000000 -1.000000 0.828427
v -2.000000 0.000000 -0.828427
v -2.000000 -1.000000 -0.828427
v -0.828427 0.000000 -2.000000
v -0.828427 -1.000000 -2.000000
v 0.828427 -1.000000 -2.000000
vn 0.707107 0.000000 -0.707107
vn 0.707107 0.000000 -0.707107
vn 1.000000 0.000000 0.000000
vn 1.000000 0.000000 0.000000
vn 0.707107 0.000000 0.707107
vn 0.707107 0.000000 0.707107
vn 0.000000 0.000000 1.000000
vn 0.000000 0.000000 1.000000
vn -0.707107 0.000000 0.707107
vn -0.707107 0.000000 0.707107
vn -1.000000 -0.000000 -0.000000
vn -1.000000 0.000000 0.000000
vn -0.707107 -0.000000 -0.707107
vn -0.707107 0.000000 -0.707107
vn 0.000000 0.000000 -1.000000
vn 0.000000 0.000000 -1.000000
vn 0.000000 1.000000 0.000000
vn 0.000000 1.000000 0.000000
vn 0.000000 1.000000 0.000000
vn 0.000000 1.000000 0.000000
vn -0.000000 1.000000 0.000000
vn -0.000000 1.000000 0.000000
vn 0.000000 -1.000000 0.000000
vn 0.000000 -1.000000 0.000000
vn 0.000000 -1.000000 0.000000
vn 0.000000 -1.000000 0.000000
vn 0.000000 -1.000000 0.000000
vn -0.000000 -1.000000 0.000000
f 1//1 2//1 3//1
f 3//2 2//2 4//2
f 2//3 5//3 4//3
f 4//4 5//4 6//4
f 5//5 7//5 6//5
f 6//6 7//6 8//6
f 7//7 9//7 8//7
f 8//8 9//8 10//8
f 9//9 11//9 10//9
f 10//10 11//10 12//10
f 11//11 13//11 12//11
f 12//12 13//12 14//12
f 13//13 15//13 14//13
f 14//14 15//14 16//14
f 15//15 1//15 16//15
f 16//16 1//16 3//16
f 5//17 2//17 7//17
f 7//18 2//18 9//18
f 9//19 2//19 11//19
f 11//20 2//20 13//20
f 13//21 2//21 15//21
f 15//22 2//22 1//22
f 6//23 8//23 10//23
f 6//24 10//24 12//24
f 17//25 14//25 16//25
f 4//26 12//26 14//26
f 4//27 6//27 12//27
f 4//28 14//28 17//28
