# Created by FreeCAD <http://www.freecadweb.org>
v 4.556349 -0.000000 -11.000000
v 11.000000 -0.000000 -4.556349
v 4.556349 -1.000000 -11.000000
v 11.000000 -1.000000 -4.556349
v 11.000000 0.000000 4.556349
v 11.000000 -1.000000 4.556349
v 4.556349 -1.000000 11.000000
v 4.556349 0.000000 11.000000
v -4.556349 0.000000 11.000000
v -4.556349 -1.000000 11.000000
v -11.000000 0.000000 4.556349
v -11.000000 -1.000000 4.556349
v -11.000000 -1.000000 -4.556349
v -11.000000 -0.000000 -4.556349
v -4.556349 -0.000000 -11.000000
v -4.556349 -1.000000 -11.000000
v 4.142136 -0.000000 -10.000000
v -4.142136 -0.000000 -10.000000
v -4.142136 -1.000000 -10.000000
v 4.142136 -1.000000 -10.000000
v -10.000000 -0.000000 -4.142136
v -10.000000 -1.000000 -4.142136
v -10.000000 0.000000 4.142136
v -10.000000 -1.000000 4.142136
v -4.142136 0.000000 10.000000
v -4.142136 -1.000000 10.000000
v 4.142136 0.000000 10.000000
v 4.142136 -1.000000 10.000000
v 10.000000 0.000000 4.142136
v 10.000000 -1.000000 4.142136
v 10.000000 -0.000000 -4.142136
v 10.000000 -1.000000 -4.142136
vn 0.707107 0.000000 -0.707107
vn 0.707107 0.000000 -0.707107
vn 1.000000 0.000000 -0.000000
vn 1.000000 0.000000 0.000000
vn 0.707107 0.000000 0.707107
vn 0.707107 0.000000 0.707107
vn 0.000000 0.000000 1.000000
vn 0.000000 0.000000 1.000000
vn -0.707107 0.000000 0.707107
vn -0.707107 0.000000 0.707107
vn -1.000000 -0.000000 0.000000
vn -1.000000 0.000000 0.000000
vn -0.707107 -0.000000 -0.707107
vn -0.707107 0.000000 -0.707107
vn 0.000000 0.000000 -1.000000
vn 0.000000 0.000000 -1.000000
vn 0.000000 0.000000 1.000000
vn 0.000000 0.000000 1.000000
vn 0.707107 0.000000 0.707107
vn 0.707107 0.000000 0.707107
vn 1.000000 0.000000 -0.000000
vn 1.000000 0.000000 0.000000
vn 0.707107 0.000000 -0.707107
vn 0.707107 0.000000 -0.707107
vn 0.000000 0.000000 -1.000000
vn 0.000000 0.000000 -1.000000
vn -0.707107 0.000000 -0.707107
vn -0.707107 -0.000000 -0.707107
vn -1.000000 0.000000 0.000000
vn -1.000000 -0.000000 0.000000
vn -0.707107 0.000000 0.707107
vn -0.707107 0.000000 0.707107
vn 0.000000 1.000000 -0.000000
vn 0.000000 1.000000 -0.000000
vn -0.000000 1.000000 -0.000000
vn 0.000000 1.000000 -0.000000
vn 0.000000 1.000000 -0.000000
vn -0.000000 1.000000 -0.000000
vn 0.000000 1.000000 -0.000000
vn 0.000000 1.000000 -0.000000
vn 0.000000 1.000000 -0.000000
vn 0.000000 1.000000 -0.000000
vn 0.000000 1.000000 -0.000000
vn -0.000000 1.000000 -0.000000
vn 0.000000 1.000000 -0.000000
vn 0.000000 1.000000 -0.000000
vn 0.000000 1.000000 -0.000000
vn 0.000000 1.000000 -0.000000
vn 0.000000 -1.000000 0.000000
vn -0.000000 -1.000000 0.000000
vn 0.000000 -1.000000 0.000000
vn 0.000000 -1.000000 0.000000
vn 0.000000 -1.000000 0.000000
vn -0.000000 -1.000000 0.000000
vn 0.000000 -1.000000 0.000000
vn -0.000000 -1.000000 0.000000
vn 0.000000 -1.000000 0.000000
vn 0.000000 -1.000000 0.000000
vn 0.000000 -1.000000 0.000000
vn -0.000000 -1.000000 0.000000
vn 0.000000 -1.000000 0.000000
vn 0.000000 -1.000000 0.000000
vn 0.000000 -1.000000 0.000000
vn 0.000000 -1.000000 0.000000
f 1//1 2//1 3//1
f 3//2 2//2 4//2
f 2//3 5//3 4//3
f 4//4 5//4 6//4
f 5//5 7//5 6//5
f 5//6 8//6 7//6
f 8//7 9//7 7//7
f 7//8 9//8 10//8
f 9//9 11//9 10//9
f 10//10 11//10 12//10
f 11//11 13//11 12//11
f 11//12 14//12 13//12
f 14//13 15//13 13//13
f 13//14 15//14 16//14
f 15//15 1//15 16//15
f 16//16 1//16 3//16
f 17//17 18//17 19//17
f 17//18 19//18 20//18
f 18//19 21//19 22//19
f 18//20 22//20 19//20
f 21//21 23//21 24//21
f 21//22 24//22 22//22
f 23//23 25//23 26//23
f 23//24 26//24 24//24
f 26//25 27//25 28//25
f 25//26 27//26 26//26
f 28//27 29//27 30//27
f 27//28 29//28 28//28
f 29//29 31//29 32//29
f 29//30 32//30 30//30
f 32//31 17//31 20//31
f 31//32 17//32 32//32
f 9//33 23//33 11//33
f 9//34 25//34 23//34
f 23//35 14//35 11//35
f 8//36 27//36 9//36
f 9//37 27//37 25//37
f 23//38 21//38 14//38
f 8//39 29//39 27//39
f 8//40 5//40 29//40
f 18//41 15//41 21//41
f 21//42 15//42 14//42
f 29//43 2//43 31//43
f 31//44 2//44 17//44
f 5//45 2//45 29//45
f 17//46 1//46 18//46
f 18//47 1//47 15//47
f 2//48 1//48 17//48
f 24//49 10//49 12//49
f 26//50 10//50 24//50
f 13//51 24//51 12//51
f 28//52 7//52 10//52
f 28//53 10//53 26//53
f 22//54 24//54 13//54
f 30//55 7//55 28//55
f 6//56 7//56 30//56
f 16//57 19//57 22//57
f 16//58 22//58 13//58
f 4//59 30//59 32//59
f 4//60 32//60 20//60
f 4//61 6//61 30//61
f 3//62 20//62 19//62
f 3//63 19//63 16//63
f 3//64 4//64 20//64
