# Created by FreeCAD <http://www.freecadweb.org>
v -12.500000 40.000000 -7.500000
v -12.500000 12.500000 -7.500000
v -12.500000 12.500000 7.500000
v -12.500000 40.000000 7.500000
v -40.000000 12.500000 -7.500000
v -40.000000 12.500000 7.500000
v -7.500000 35.000000 -12.500000
v -7.500000 7.500000 -12.500000
v -7.500000 7.500000 12.500000
v -7.500000 35.000000 12.500000
v 12.500000 40.000000 -7.500000
v 12.500000 40.000000 7.500000
v -40.000000 -12.500000 -7.500000
v -40.000000 -12.500000 7.500000
v -35.000000 7.500000 -12.500000
v -35.000000 7.500000 12.500000
v 7.500000 -7.500000 -12.500000
v 35.000000 7.500000 -12.500000
v 35.000000 -7.500000 -12.500000
v 7.500000 7.500000 -12.500000
v -7.500000 -7.500000 -12.500000
v 7.500000 -35.000000 -12.500000
v -7.500000 -35.000000 -12.500000
v 7.500000 35.000000 -12.500000
v -35.000000 -7.500000 -12.500000
v 35.000000 7.500000 12.500000
v 7.500000 -7.500000 12.500000
v 35.000000 -7.500000 12.500000
v 7.500000 7.500000 12.500000
v 7.500000 -35.000000 12.500000
v -7.500000 -7.500000 12.500000
v -7.500000 -35.000000 12.500000
v 7.500000 35.000000 12.500000
v -35.000000 -7.500000 12.500000
v 12.500000 12.500000 -7.500000
v 12.500000 12.500000 7.500000
v -12.500000 -12.500000 -7.500000
v -12.500000 -12.500000 7.500000
v 40.000000 12.500000 -7.500000
v -12.500000 -40.000000 -7.500000
v 40.000000 -12.500000 -7.500000
v 12.500000 -40.000000 -7.500000
v 12.500000 -12.500000 -7.500000
v 40.000000 12.500000 7.500000
v -12.500000 -40.000000 7.500000
v 40.000000 -12.500000 7.500000
v 12.500000 -40.000000 7.500000
v 12.500000 -12.500000 7.500000
vn -1.000000 0.000000 0.000000
vn -1.000000 0.000000 0.000000
vn 0.000000 1.000000 0.000000
vn 0.000000 1.000000 -0.000000
vn -0.707107 -0.000000 -0.707107
vn -0.707107 0.000000 -0.707107
vn -0.707107 0.000000 0.707107
vn -0.707107 0.000000 0.707107
vn 0.000000 1.000000 0.000000
vn 0.000000 1.000000 -0.000000
vn -1.000000 0.000000 0.000000
vn -1.000000 0.000000 0.000000
vn 0.000000 0.707107 -0.707107
vn 0.000000 0.707107 -0.707107
vn 0.000000 0.707107 0.707107
vn -0.000000 0.707107 0.707107
vn 0.000000 0.000000 -1.000000
vn 0.000000 0.000000 -1.000000
vn 0.000000 0.000000 -1.000000
vn 0.000000 0.000000 -1.000000
vn 0.000000 0.000000 -1.000000
vn 0.000000 0.000000 -1.000000
vn 0.000000 0.000000 -1.000000
vn 0.000000 0.000000 -1.000000
vn 0.000000 0.000000 -1.000000
vn 0.000000 0.000000 -1.000000
vn 0.000000 0.707107 -0.707107
vn 0.000000 0.707107 -0.707107
vn 0.000000 0.000000 1.000000
vn 0.000000 0.000000 1.000000
vn 0.000000 0.000000 1.000000
vn 0.000000 0.000000 1.000000
vn 0.000000 0.000000 1.000000
vn 0.000000 0.000000 1.000000
vn 0.000000 0.000000 1.000000
vn 0.000000 0.000000 1.000000
vn 0.000000 0.000000 1.000000
vn 0.000000 0.000000 1.000000
vn -0.000000 0.707107 0.707107
vn -0.000000 0.707107 0.707107
vn 1.000000 0.000000 0.000000
vn 1.000000 0.000000 0.000000
vn 0.000000 -1.000000 0.000000
vn 0.000000 -1.000000 0.000000
vn -0.707107 0.000000 -0.707107
vn -0.707107 0.000000 -0.707107
vn -0.707107 0.000000 0.707107
vn -0.707107 0.000000 0.707107
vn 0.707107 0.000000 -0.707107
vn 0.707107 0.000000 -0.707107
vn 0.000000 -0.707107 -0.707107
vn -0.000000 -0.707107 -0.707107
vn 0.000000 0.707107 -0.707107
vn 0.000000 0.707107 -0.707107
vn -0.707107 0.000000 -0.707107
vn -0.707107 0.000000 -0.707107
vn 0.707107 0.000000 -0.707107
vn 0.707107 0.000000 -0.707107
vn -0.000000 -0.707107 -0.707107
vn -0.000000 -0.707107 -0.707107
vn -0.000000 -0.707107 -0.707107
vn -0.000000 -0.707107 -0.707107
vn 0.707107 0.000000 -0.707107
vn 0.707107 0.000000 -0.707107
vn 0.707107 0.000000 0.707107
vn 0.707107 0.000000 0.707107
vn 0.000000 -0.707107 0.707107
vn 0.000000 -0.707107 0.707107
vn -0.000000 0.707107 0.707107
vn -0.000000 0.707107 0.707107
vn -0.707107 0.000000 0.707107
vn -0.707107 0.000000 0.707107
vn 0.707107 0.000000 0.707107
vn 0.707107 0.000000 0.707107
vn 0.000000 -0.707107 0.707107
vn 0.000000 -0.707107 0.707107
vn 0.000000 -0.707107 0.707107
vn 0.000000 -0.707107 0.707107
vn 0.707107 0.000000 0.707107
vn 0.707107 0.000000 0.707107
vn 0.000000 1.000000 0.000000
vn 0.000000 1.000000 -0.000000
vn -1.000000 0.000000 0.000000
vn -1.000000 0.000000 0.000000
vn 1.000000 0.000000 0.000000
vn 1.000000 0.000000 0.000000
vn 0.000000 -1.000000 0.000000
vn 0.000000 -1.000000 0.000000
vn 0.000000 -1.000000 0.000000
vn 0.000000 -1.000000 0.000000
vn 1.000000 0.000000 0.000000
vn 1.000000 0.000000 0.000000
f 1//1 2//1 3//1
f 1//2 3//2 4//2
f 2//3 5//3 6//3
f 2//4 6//4 3//4
f 7//5 8//5 2//5
f 7//6 2//6 1//6
f 9//7 10//7 3//7
f 3//8 10//8 4//8
f 11//9 1//9 4//9
f 11//10 4//10 12//10
f 5//11 13//11 14//11
f 5//12 14//12 6//12
f 2//13 15//13 5//13
f 8//14 15//14 2//14
f 16//15 3//15 6//15
f 16//16 9//16 3//16
f 17//17 18//17 19//17
f 20//18 18//18 17//18
f 21//19 22//19 23//19
f 21//20 17//20 22//20
f 8//21 17//21 21//21
f 8//22 20//22 17//22
f 7//23 24//23 20//23
f 7//24 20//24 8//24
f 15//25 21//25 25//25
f 15//26 8//26 21//26
f 1//27 11//27 7//27
f 7//28 11//28 24//28
f 26//29 27//29 28//29
f 26//30 29//30 27//30
f 30//31 31//31 32//31
f 27//32 31//32 30//32
f 27//33 9//33 31//33
f 29//34 9//34 27//34
f 33//35 10//35 29//35
f 29//36 10//36 9//36
f 31//37 16//37 34//37
f 9//38 16//38 31//38
f 10//39 33//39 4//39
f 4//40 33//40 12//40
f 35//41 11//41 12//41
f 35//42 12//42 36//42
f 13//43 37//43 38//43
f 13//44 38//44 14//44
f 13//45 5//45 25//45
f 25//46 5//46 15//46
f 34//47 16//47 14//47
f 14//48 16//48 6//48
f 11//49 35//49 24//49
f 24//50 35//50 20//50
f 37//51 25//51 21//51
f 37//52 13//52 25//52
f 35//53 18//53 20//53
f 35//54 39//54 18//54
f 40//55 37//55 23//55
f 23//56 37//56 21//56
f 39//57 41//57 18//57
f 18//58 41//58 19//58
f 42//59 40//59 22//59
f 22//60 40//60 23//60
f 41//61 43//61 19//61
f 19//62 43//62 17//62
f 43//63 22//63 17//63
f 43//64 42//64 22//64
f 33//65 36//65 12//65
f 33//66 29//66 36//66
f 31//67 34//67 38//67
f 38//68 34//68 14//68
f 29//69 26//69 36//69
f 36//70 26//70 44//70
f 32//71 38//71 45//71
f 32//72 31//72 38//72
f 26//73 28//73 44//73
f 44//74 28//74 46//74
f 30//75 45//75 47//75
f 30//76 32//76 45//76
f 28//77 48//77 46//77
f 28//78 27//78 48//78
f 27//79 30//79 48//79
f 48//80 30//80 47//80
f 39//81 35//81 36//81
f 39//82 36//82 44//82
f 37//83 40//83 45//83
f 37//84 45//84 38//84
f 41//85 39//85 44//85
f 41//86 44//86 46//86
f 40//87 42//87 47//87
f 40//88 47//88 45//88
f 43//89 41//89 46//89
f 43//90 46//90 48//90
f 42//91 43//91 48//91
f 42//92 48//92 47//92
