# Created by FreeCAD <http://www.freecadweb.org>
v -11.000000 45.000000 5.000000
v -5.000000 48.000000 9.000000
v -11.000000 48.000000 5.000000
v -11.000000 43.000000 5.000000
v -5.000000 37.071068 9.000000
v -5.000000 32.928932 9.000000
v -11.000000 27.000000 5.000000
v -5.000000 22.000000 9.000000
v -11.000000 25.000000 5.000000
v -11.000000 22.000000 5.000000
v -16.000000 43.000000 5.000000
v -16.000000 27.000000 5.000000
v -11.000000 25.000000 3.000000
v -11.000000 25.000000 -3.000000
v -11.000000 25.000000 -5.000000
v -11.000000 27.000000 -5.000000
v -11.000000 22.000000 -5.000000
v -11.000000 45.000000 3.000000
v -11.000000 48.000000 -5.000000
v -11.000000 45.000000 -3.000000
v -11.000000 45.000000 -5.000000
v -11.000000 43.000000 -5.000000
v -9.000000 20.000000 3.929632
v -4.394449 20.000000 7.000000
v -4.394449 50.000000 7.000000
v -9.000000 50.000000 3.929632
v -2.071068 30.000000 9.000000
v 2.071068 30.000000 9.000000
v 5.000000 22.000000 9.000000
v 5.000000 32.928932 9.000000
v -2.071068 40.000000 9.000000
v 5.000000 48.000000 9.000000
v 2.071068 40.000000 9.000000
v 5.000000 37.071068 9.000000
v -5.000000 37.071068 -9.000000
v -5.000000 32.928932 -9.000000
v -18.928932 43.000000 2.071068
v -18.928932 27.000000 2.071068
v -15.171573 25.000000 3.000000
v -15.171573 45.000000 3.000000
v -16.928932 25.000000 1.242641
v -16.928932 25.000000 -1.242641
v -15.171573 25.000000 3.000000
v -15.171573 25.000000 -3.000000
v -11.000000 25.000000 3.000000
v -11.000000 25.000000 -3.000000
v -15.171573 25.000000 -3.000000
v -16.000000 27.000000 -5.000000
v -5.000000 48.000000 -9.000000
v -5.000000 22.000000 -9.000000
v -9.000000 20.000000 -3.929632
v -16.928932 45.000000 -1.242641
v -16.928932 45.000000 1.242641
v -15.171573 45.000000 3.000000
v -15.171573 45.000000 -3.000000
v -11.000000 45.000000 3.000000
v -16.000000 43.000000 -5.000000
v -9.000000 50.000000 -3.929632
v 4.394449 20.000000 7.000000
v -6.000000 20.000000 2.485281
v -2.485281 20.000000 6.000000
v -6.000000 20.000000 -2.485281
v 2.485281 20.000000 6.000000
v -4.394449 20.000000 -7.000000
v 6.000000 20.000000 2.485281
v -2.485281 20.000000 -6.000000
v 9.000000 20.000000 3.929632
v 6.000000 20.000000 -2.485281
v 4.394449 20.000000 -7.000000
v 2.485281 20.000000 -6.000000
v 9.000000 20.000000 -3.929632
v 4.394449 50.000000 7.000000
v -4.394449 50.000000 7.000000
v -4.394449 50.000000 -7.000000
v -9.000000 50.000000 3.929632
v -9.000000 50.000000 -3.929632
v 4.394449 50.000000 7.000000
v 4.394449 50.000000 -7.000000
v 9.000000 50.000000 3.929632
v 9.000000 50.000000 -3.929632
v 11.000000 43.000000 5.000000
v 11.000000 45.000000 5.000000
v 11.000000 48.000000 5.000000
v 11.000000 27.000000 5.000000
v 11.000000 25.000000 5.000000
v 11.000000 22.000000 5.000000
v 2.071068 30.000000 -9.000000
v 5.000000 32.928932 -9.000000
v -2.071068 30.000000 -9.000000
v 5.000000 37.071068 -9.000000
v 2.071068 40.000000 -9.000000
v -2.071068 40.000000 -9.000000
v -18.928932 43.000000 -2.071068
v -18.928932 27.000000 -2.071068
v -16.928932 25.000000 1.242641
v -16.928932 45.000000 1.242641
v -16.928932 25.000000 -1.242641
v -4.394449 50.000000 -7.000000
v 5.000000 22.000000 -9.000000
v 5.000000 48.000000 -9.000000
v 11.000000 22.000000 -5.000000
v 2.485281 -48.000000 -6.000000
v 6.000000 -48.000000 -2.485281
v 6.000000 -44.000000 -2.000000
v 6.000000 -48.000000 2.485281
v 6.000000 -44.000000 2.000000
v 6.000000 -36.000000 -2.000000
v 6.000000 -31.000000 2.000000
v 6.000000 -36.000000 2.000000
v 6.000000 -31.000000 -2.000000
v 6.000000 -14.000000 -2.000000
v 6.000000 -14.000000 2.000000
v 2.485281 -48.000000 6.000000
v -2.485281 -48.000000 6.000000
v -6.000000 -48.000000 2.485281
v -6.000000 -48.000000 -2.485281
v -2.485281 -48.000000 -6.000000
v 9.000000 50.000000 3.929632
v 11.000000 48.000000 -5.000000
v 9.000000 50.000000 -3.929632
v 4.394449 50.000000 -7.000000
v 16.000000 43.000000 5.000000
v 16.000000 27.000000 5.000000
v 11.000000 25.000000 -3.000000
v 11.000000 25.000000 -5.000000
v 11.000000 27.000000 -5.000000
v 11.000000 25.000000 3.000000
v 11.000000 45.000000 -3.000000
v 11.000000 45.000000 -5.000000
v 11.000000 43.000000 -5.000000
v 11.000000 45.000000 3.000000
v 4.000000 -50.000000 -1.656854
v 1.656854 -50.000000 -4.000000
v 4.000000 -50.000000 1.656854
v 14.000000 -14.000000 -2.000000
v 14.000000 -31.000000 -2.000000
v 14.000000 -31.000000 2.000000
v 14.000000 -14.000000 2.000000
v 14.000000 -36.000000 -2.000000
v 14.000000 -44.000000 -2.000000
v 14.000000 -44.000000 2.000000
v 14.000000 -36.000000 2.000000
v 1.656854 -50.000000 4.000000
v -1.656854 -50.000000 4.000000
v -4.000000 -50.000000 1.656854
v -4.000000 -50.000000 -1.656854
v -1.656854 -50.000000 -4.000000
v 18.928932 27.000000 2.071068
v 18.928932 43.000000 2.071068
v 15.171573 25.000000 3.000000
v 15.171573 45.000000 3.000000
v 16.928932 25.000000 -1.242641
v 16.928932 25.000000 1.242641
v 15.171573 25.000000 3.000000
v 15.171573 25.000000 -3.000000
v 11.000000 25.000000 3.000000
v 11.000000 25.000000 -3.000000
v 15.171573 25.000000 -3.000000
v 16.000000 27.000000 -5.000000
v 16.928932 45.000000 1.242641
v 16.928932 45.000000 -1.242641
v 15.171573 45.000000 3.000000
v 15.171573 45.000000 -3.000000
v 11.000000 45.000000 3.000000
v 16.000000 43.000000 -5.000000
v 1.656854 -50.000000 4.000000
v -1.656854 -50.000000 4.000000
v -4.000000 -50.000000 1.656854
v 4.000000 -50.000000 1.656854
v 1.656854 -50.000000 -4.000000
v -4.000000 -50.000000 -1.656854
v 4.000000 -50.000000 -1.656854
v 18.928932 43.000000 -2.071068
v 18.928932 27.000000 -2.071068
v 16.928932 25.000000 1.242641
v 16.928932 45.000000 1.242641
v 16.928932 25.000000 -1.242641
v 16.928932 45.000000 -1.242641
vn -0.554700 0.000000 0.832050
vn -0.554700 0.000000 0.832050
vn -0.554700 0.000000 0.832050
vn -0.554700 0.000000 0.832050
vn -0.554700 0.000000 0.832050
vn -0.554700 0.000000 0.832050
vn -0.554700 0.000000 0.832050
vn -0.554700 0.000000 0.832050
vn 0.000000 0.000000 1.000000
vn 0.000000 0.000000 1.000000
vn -1.000000 0.000000 0.000000
vn -1.000000 0.000000 0.000000
vn -1.000000 0.000000 0.000000
vn -1.000000 0.000000 0.000000
vn -1.000000 0.000000 0.000000
vn -1.000000 0.000000 0.000000
vn -1.000000 0.000000 0.000000
vn -1.000000 0.000000 0.000000
vn -1.000000 0.000000 0.000000
vn -1.000000 0.000000 0.000000
vn -1.000000 0.000000 0.000000
vn -1.000000 0.000000 0.000000
vn -0.392232 -0.707107 0.588348
vn -0.392232 -0.707107 0.588348
vn -0.392232 0.707107 0.588348
vn -0.392232 0.707107 0.588348
vn -0.000000 0.000000 1.000000
vn 0.000000 0.000000 1.000000
vn -0.000000 0.000000 1.000000
vn 0.000000 0.000000 1.000000
vn -0.000000 0.000000 1.000000
vn 0.000000 0.000000 1.000000
vn 0.000000 0.000000 1.000000
vn -0.000000 0.000000 1.000000
vn 1.000000 0.000000 0.000000
vn 1.000000 0.000000 0.000000
vn -0.707107 0.000000 0.707107
vn -0.707107 0.000000 0.707107
vn 0.000000 -0.707107 0.707107
vn 0.000000 -0.707107 0.707107
vn 0.000000 0.707107 0.707107
vn 0.000000 0.707107 0.707107
vn 0.000000 -1.000000 0.000000
vn 0.000000 -1.000000 0.000000
vn 0.000000 -1.000000 0.000000
vn 0.000000 -1.000000 0.000000
vn 0.000000 -0.707107 -0.707107
vn 0.000000 -0.707107 -0.707107
vn -0.554700 0.000000 -0.832050
vn -0.554700 0.000000 -0.832050
vn -0.554700 0.000000 -0.832050
vn -0.554700 0.000000 -0.832050
vn -0.554700 0.000000 -0.832050
vn -0.554700 0.000000 -0.832050
vn -0.554700 0.000000 -0.832050
vn -0.554700 0.000000 -0.832050
vn -0.707107 -0.707107 0.000000
vn -0.707107 -0.707107 -0.000000
vn 0.000000 1.000000 0.000000
vn 0.000000 1.000000 0.000000
vn 0.000000 1.000000 -0.000000
vn 0.000000 1.000000 -0.000000
vn 0.000000 0.707107 -0.707107
vn 0.000000 0.707107 -0.707107
vn -0.707107 0.707107 0.000000
vn -0.707107 0.707107 0.000000
vn 0.000000 -0.707107 0.707107
vn 0.000000 -0.707107 0.707107
vn 0.000000 -1.000000 0.000000
vn 0.000000 -1.000000 0.000000
vn -0.000000 -1.000000 0.000000
vn 0.000000 -1.000000 0.000000
vn 0.000000 -1.000000 0.000000
vn -0.000000 -1.000000 0.000000
vn 0.000000 -1.000000 0.000000
vn 0.000000 -1.000000 0.000000
vn -0.000000 -1.000000 0.000000
vn -0.000000 -1.000000 0.000000
vn 0.000000 -1.000000 0.000000
vn 0.000000 -1.000000 0.000000
vn 0.000000 -1.000000 0.000000
vn 0.000000 -1.000000 0.000000
vn -0.000000 -1.000000 0.000000
vn 0.000000 -1.000000 0.000000
vn 0.000000 0.707107 0.707107
vn 0.000000 0.707107 0.707107
vn 0.000000 1.000000 0.000000
vn 0.000000 1.000000 0.000000
vn 0.000000 1.000000 0.000000
vn 0.000000 1.000000 0.000000
vn 0.000000 1.000000 0.000000
vn 0.000000 1.000000 0.000000
vn 0.554700 0.000000 0.832050
vn 0.554700 0.000000 0.832050
vn 0.554700 -0.000000 0.832050
vn 0.554700 -0.000000 0.832050
vn 0.554700 -0.000000 0.832050
vn 0.554700 0.000000 0.832050
vn 0.554700 0.000000 0.832050
vn 0.554700 -0.000000 0.832050
vn -0.707107 0.707107 0.000000
vn -0.707107 0.707107 0.000000
vn 0.000000 1.000000 0.000000
vn -0.000000 1.000000 0.000000
vn 0.707107 0.707107 -0.000000
vn 0.707107 0.707107 0.000000
vn -0.707107 -0.707107 0.000000
vn -0.707107 -0.707107 -0.000000
vn 0.000000 -1.000000 0.000000
vn -0.000000 -1.000000 0.000000
vn 0.707107 -0.707107 0.000000
vn 0.707107 -0.707107 0.000000
vn -1.000000 0.000000 0.000000
vn -1.000000 -0.000000 -0.000000
vn -0.500000 -0.707107 0.500000
vn -0.500000 -0.707107 0.500000
vn -0.500000 0.707107 0.500000
vn -0.500000 0.707107 0.500000
vn -0.500000 -0.707107 -0.500000
vn -0.500000 -0.707107 -0.500000
vn -0.707107 -0.707107 -0.000000
vn -0.707107 -0.707107 -0.000000
vn 0.000000 -0.000000 -1.000000
vn 0.000000 0.000000 -1.000000
vn -0.392232 -0.707107 -0.588348
vn -0.392232 -0.707107 -0.588348
vn -0.392232 0.707107 -0.588348
vn -0.392232 0.707107 -0.588348
vn 0.000000 0.000000 -1.000000
vn 0.000000 0.000000 -1.000000
vn 0.000000 0.000000 -1.000000
vn 0.000000 0.000000 -1.000000
vn 0.000000 0.000000 -1.000000
vn -0.000000 0.000000 -1.000000
vn 0.000000 0.000000 -1.000000
vn 0.000000 0.000000 -1.000000
vn -0.500000 0.707107 -0.500000
vn -0.500000 0.707107 -0.500000
vn -0.707107 0.707107 0.000000
vn -0.707107 0.707107 0.000000
vn 0.392232 -0.707107 0.588348
vn 0.392232 -0.707107 0.588348
vn 0.707107 -0.707107 0.000000
vn 0.707107 -0.707107 0.000000
vn 0.392232 -0.707107 -0.588348
vn 0.392232 -0.707107 -0.588348
vn 0.000000 -0.707107 -0.707107
vn 0.000000 -0.707107 -0.707107
vn 0.707107 0.000000 -0.707107
vn 0.707107 0.000000 -0.707107
vn 1.000000 0.000000 0.000000
vn 1.000000 0.000000 -0.000000
vn 1.000000 0.000000 0.000000
vn 1.000000 0.000000 -0.000000
vn 1.000000 0.000000 0.000000
vn 1.000000 0.000000 -0.000000
vn 1.000000 0.000000 0.000000
vn 1.000000 0.000000 0.000000
vn 1.000000 0.000000 0.000000
vn 1.000000 0.000000 0.000000
vn 1.000000 0.000000 0.000000
vn 1.000000 0.000000 0.000000
vn 1.000000 0.000000 0.000000
vn 1.000000 0.000000 0.000000
vn 0.707107 0.000000 0.707107
vn 0.707107 0.000000 0.707107
vn 0.000000 0.000000 1.000000
vn 0.000000 0.000000 1.000000
vn -0.707107 0.000000 0.707107
vn -0.707107 0.000000 0.707107
vn -1.000000 -0.000000 -0.000000
vn -1.000000 0.000000 0.000000
vn -0.707107 -0.000000 -0.707107
vn -0.707107 0.000000 -0.707107
vn 0.000000 0.000000 -1.000000
vn 0.000000 0.000000 -1.000000
vn 0.392232 0.707107 0.588348
vn 0.392232 0.707107 0.588348
vn 0.707107 0.707107 0.000000
vn 0.707107 0.707107 0.000000
vn 0.000000 0.707107 -0.707107
vn 0.000000 0.707107 -0.707107
vn 0.392232 0.707107 -0.588348
vn 0.392232 0.707107 -0.588348
vn 0.000000 0.000000 1.000000
vn 0.000000 0.000000 1.000000
vn 1.000000 0.000000 0.000000
vn 1.000000 0.000000 0.000000
vn 1.000000 -0.000000 0.000000
vn 1.000000 0.000000 0.000000
vn 1.000000 0.000000 0.000000
vn 1.000000 -0.000000 0.000000
vn 1.000000 0.000000 0.000000
vn 1.000000 0.000000 0.000000
vn 1.000000 0.000000 0.000000
vn 1.000000 -0.000000 0.000000
vn 1.000000 -0.000000 0.000000
vn 1.000000 -0.000000 0.000000
vn -1.000000 0.000000 0.000000
vn -1.000000 0.000000 0.000000
vn -0.707107 0.000000 -0.707107
vn -0.707107 -0.000000 -0.707107
vn 0.554700 0.000000 -0.832050
vn 0.554700 0.000000 -0.832050
vn 0.554700 0.000000 -0.832050
vn 0.554700 0.000000 -0.832050
vn 0.554700 0.000000 -0.832050
vn 0.554700 0.000000 -0.832050
vn 0.554700 0.000000 -0.832050
vn 0.554700 0.000000 -0.832050
vn 0.500000 -0.707107 -0.500000
vn 0.500000 -0.707107 -0.500000
vn 0.707107 -0.707107 0.000000
vn 0.707107 -0.707107 0.000000
vn 0.000000 -0.000000 -1.000000
vn 0.000000 0.000000 -1.000000
vn 0.000000 -1.000000 0.000000
vn 0.000000 -1.000000 0.000000
vn 0.000000 0.000000 1.000000
vn 0.000000 0.000000 1.000000
vn 0.000000 1.000000 0.000000
vn 0.000000 1.000000 -0.000000
vn 0.000000 0.000000 -1.000000
vn 0.000000 0.000000 -1.000000
vn 0.000000 -1.000000 0.000000
vn 0.000000 -1.000000 0.000000
vn 0.000000 0.000000 1.000000
vn 0.000000 0.000000 1.000000
vn 0.000000 1.000000 0.000000
vn 0.000000 1.000000 -0.000000
vn 0.500000 -0.707107 0.500000
vn 0.500000 -0.707107 0.500000
vn 0.000000 -0.707107 0.707107
vn 0.000000 -0.707107 0.707107
vn -0.500000 -0.707107 0.500000
vn -0.500000 -0.707107 0.500000
vn -0.707107 -0.707107 0.000000
vn -0.707107 -0.707107 0.000000
vn -0.500000 -0.707107 -0.500000
vn -0.500000 -0.707107 -0.500000
vn -0.000000 -0.707107 -0.707107
vn -0.000000 -0.707107 -0.707107
vn 0.707107 -0.000000 0.707107
vn 0.707107 0.000000 0.707107
vn 0.000000 -0.707107 0.707107
vn 0.000000 -0.707107 0.707107
vn 0.000000 0.707107 0.707107
vn 0.000000 0.707107 0.707107
vn 0.000000 -1.000000 0.000000
vn 0.000000 -1.000000 0.000000
vn 0.000000 -1.000000 0.000000
vn 0.000000 -1.000000 0.000000
vn 0.000000 -0.707107 -0.707107
vn 0.000000 -0.707107 -0.707107
vn 0.000000 1.000000 0.000000
vn 0.000000 1.000000 0.000000
vn 0.000000 1.000000 0.000000
vn 0.000000 1.000000 0.000000
vn 0.000000 0.707107 -0.707107
vn 0.000000 0.707107 -0.707107
vn 0.000000 0.000000 -1.000000
vn 0.000000 0.000000 -1.000000
vn -0.000000 -1.000000 0.000000
vn 0.000000 -1.000000 0.000000
vn 0.000000 -1.000000 0.000000
vn 0.000000 -1.000000 0.000000
vn 0.000000 -1.000000 0.000000
vn -0.000000 -1.000000 0.000000
vn 1.000000 0.000000 0.000000
vn 1.000000 0.000000 0.000000
vn 1.000000 -0.000000 0.000000
vn 1.000000 0.000000 0.000000
vn 1.000000 0.000000 -0.000000
vn 1.000000 0.000000 0.000000
vn 0.500000 -0.707107 0.500000
vn 0.500000 -0.707107 0.500000
vn 0.500000 0.707107 0.500000
vn 0.500000 0.707107 0.500000
vn 0.500000 -0.707107 -0.500000
vn 0.500000 -0.707107 -0.500000
vn 0.707107 -0.707107 0.000000
vn 0.707107 -0.707107 0.000000
vn 0.500000 0.707107 -0.500000
vn 0.500000 0.707107 -0.500000
vn 0.707107 0.707107 0.000000
vn 0.707107 0.707107 0.000000
vn 0.707107 0.000000 -0.707107
vn 0.707107 0.000000 -0.707107
f 1//1 2//1 3//1
f 4//2 5//2 2//2
f 4//3 2//3 1//3
f 6//4 5//4 4//4
f 7//5 8//5 6//5
f 7//6 6//6 4//6
f 9//7 8//7 7//7
f 10//8 8//8 9//8
f 4//9 11//9 12//9
f 4//10 12//10 7//10
f 13//11 9//11 7//11
f 10//12 9//12 13//12
f 14//13 10//13 13//13
f 15//14 14//14 16//14
f 17//15 10//15 14//15
f 17//16 14//16 15//16
f 18//17 1//17 3//17
f 4//18 1//18 18//18
f 19//19 18//19 3//19
f 20//20 18//20 19//20
f 21//21 20//21 19//21
f 22//22 20//22 21//22
f 23//23 24//23 8//23
f 23//24 8//24 10//24
f 25//25 26//25 2//25
f 2//26 26//26 3//26
f 27//27 8//27 28//27
f 6//28 8//28 27//28
f 28//29 29//29 30//29
f 8//30 29//30 28//30
f 2//31 31//31 32//31
f 5//32 31//32 2//32
f 31//33 33//33 32//33
f 33//34 34//34 32//34
f 35//35 6//35 36//35
f 5//36 6//36 35//36
f 11//37 37//37 38//37
f 11//38 38//38 12//38
f 39//39 7//39 12//39
f 39//40 13//40 7//40
f 4//41 40//41 11//41
f 18//42 40//42 4//42
f 41//43 42//43 43//43
f 43//44 44//44 45//44
f 42//45 44//45 43//45
f 44//46 46//46 45//46
f 47//47 16//47 14//47
f 48//48 16//48 47//48
f 49//49 22//49 21//49
f 49//50 21//50 19//50
f 35//51 22//51 49//51
f 36//52 16//52 22//52
f 36//53 22//53 35//53
f 50//54 15//54 16//54
f 50//55 17//55 15//55
f 50//56 16//56 36//56
f 10//57 51//57 23//57
f 10//58 17//58 51//58
f 52//59 53//59 54//59
f 55//60 54//60 56//60
f 55//61 52//61 54//61
f 20//62 55//62 56//62
f 55//63 20//63 22//63
f 55//64 22//64 57//64
f 26//65 19//65 3//65
f 26//66 58//66 19//66
f 24//67 29//67 8//67
f 24//68 59//68 29//68
f 60//69 24//69 23//69
f 60//70 61//70 24//70
f 62//71 23//71 51//71
f 62//72 60//72 23//72
f 63//73 24//73 61//73
f 59//74 24//74 63//74
f 64//75 62//75 51//75
f 65//76 59//76 63//76
f 66//77 62//77 64//77
f 67//78 59//78 65//78
f 68//79 67//79 65//79
f 69//80 68//80 70//80
f 69//81 70//81 66//81
f 69//82 66//82 64//82
f 71//83 68//83 69//83
f 71//84 67//84 68//84
f 32//85 25//85 2//85
f 72//86 25//86 32//86
f 73//87 74//87 75//87
f 75//88 74//88 76//88
f 77//89 78//89 73//89
f 73//90 78//90 74//90
f 79//91 80//91 77//91
f 77//92 80//92 78//92
f 32//93 81//93 82//93
f 32//94 82//94 83//94
f 34//95 81//95 32//95
f 84//96 81//96 34//96
f 30//97 84//97 34//97
f 29//98 85//98 84//98
f 29//99 86//99 85//99
f 29//100 84//100 30//100
f 87//101 30//101 88//101
f 28//102 30//102 87//102
f 89//103 28//103 87//103
f 27//104 28//104 89//104
f 36//105 6//105 89//105
f 6//106 27//106 89//106
f 90//107 33//107 91//107
f 34//108 33//108 90//108
f 91//109 33//109 92//109
f 33//110 31//110 92//110
f 92//111 5//111 35//111
f 31//112 5//112 92//112
f 93//113 94//113 38//113
f 37//114 93//114 38//114
f 95//115 39//115 38//115
f 38//116 39//116 12//116
f 40//117 96//117 37//117
f 40//118 37//118 11//118
f 94//119 48//119 47//119
f 94//120 47//120 97//120
f 95//121 94//121 97//121
f 38//122 94//122 95//122
f 22//123 16//123 48//123
f 57//124 22//124 48//124
f 17//125 50//125 51//125
f 51//126 50//126 64//126
f 49//127 19//127 58//127
f 49//128 58//128 98//128
f 50//129 89//129 87//129
f 50//130 36//130 89//130
f 99//131 87//131 88//131
f 99//132 50//132 87//132
f 92//133 49//133 100//133
f 92//134 35//134 49//134
f 91//135 92//135 100//135
f 90//136 91//136 100//136
f 57//137 93//137 55//137
f 55//138 93//138 52//138
f 93//139 96//139 52//139
f 93//140 37//140 96//140
f 86//141 29//141 67//141
f 67//142 29//142 59//142
f 101//143 67//143 71//143
f 101//144 86//144 67//144
f 99//145 71//145 69//145
f 99//146 101//146 71//146
f 50//147 99//147 64//147
f 64//148 99//148 69//148
f 70//149 68//149 102//149
f 102//150 68//150 103//150
f 104//151 105//151 103//151
f 104//152 106//152 105//152
f 107//153 108//153 109//153
f 110//154 108//154 107//154
f 111//155 65//155 112//155
f 68//156 65//156 111//156
f 103//157 68//157 111//157
f 103//158 111//158 110//158
f 103//159 110//159 107//159
f 103//160 107//160 104//160
f 65//161 105//161 106//161
f 65//162 106//162 109//162
f 65//163 109//163 108//163
f 65//164 108//164 112//164
f 65//165 63//165 105//165
f 105//166 63//166 113//166
f 63//167 61//167 113//167
f 113//168 61//168 114//168
f 61//169 60//169 114//169
f 114//170 60//170 115//170
f 60//171 62//171 115//171
f 115//172 62//172 116//172
f 62//173 66//173 116//173
f 116//174 66//174 117//174
f 66//175 70//175 117//175
f 117//176 70//176 102//176
f 32//177 83//177 118//177
f 32//178 118//178 72//178
f 83//179 119//179 120//179
f 83//180 120//180 118//180
f 100//181 49//181 98//181
f 100//182 98//182 121//182
f 120//183 100//183 121//183
f 119//184 100//184 120//184
f 122//185 81//185 123//185
f 123//186 81//186 84//186
f 124//187 125//187 126//187
f 101//188 125//188 124//188
f 85//189 127//189 84//189
f 86//190 124//190 127//190
f 86//191 101//191 124//191
f 86//192 127//192 85//192
f 128//193 129//193 119//193
f 130//194 129//194 128//194
f 83//195 128//195 119//195
f 131//196 128//196 83//196
f 82//197 131//197 83//197
f 81//198 131//198 82//198
f 88//199 30//199 90//199
f 30//200 34//200 90//200
f 93//201 57//201 48//201
f 93//202 48//202 94//202
f 129//203 100//203 119//203
f 130//204 90//204 100//204
f 130//205 100//205 129//205
f 126//206 99//206 88//206
f 126//207 88//207 90//207
f 126//208 90//208 130//208
f 125//209 99//209 126//209
f 101//210 99//210 125//210
f 132//211 133//211 102//211
f 132//212 102//212 103//212
f 134//213 132//213 103//213
f 134//214 103//214 105//214
f 135//215 136//215 110//215
f 111//216 135//216 110//216
f 110//217 136//217 137//217
f 110//218 137//218 108//218
f 138//219 112//219 137//219
f 137//220 112//220 108//220
f 135//221 111//221 112//221
f 135//222 112//222 138//222
f 107//223 139//223 140//223
f 107//224 140//224 104//224
f 104//225 140//225 141//225
f 104//226 141//226 106//226
f 142//227 109//227 141//227
f 141//228 109//228 106//228
f 139//229 107//229 109//229
f 139//230 109//230 142//230
f 143//231 134//231 105//231
f 143//232 105//232 113//232
f 114//233 143//233 113//233
f 144//234 143//234 114//234
f 115//235 144//235 114//235
f 145//236 144//236 115//236
f 146//237 145//237 115//237
f 146//238 115//238 116//238
f 147//239 146//239 116//239
f 147//240 116//240 117//240
f 102//241 147//241 117//241
f 133//242 147//242 102//242
f 148//243 149//243 123//243
f 149//244 122//244 123//244
f 84//245 150//245 123//245
f 127//246 150//246 84//246
f 151//247 81//247 122//247
f 151//248 131//248 81//248
f 152//249 153//249 154//249
f 155//250 154//250 156//250
f 155//251 152//251 154//251
f 157//252 155//252 156//252
f 126//253 158//253 124//253
f 126//254 159//254 158//254
f 160//255 161//255 162//255
f 162//256 163//256 164//256
f 161//257 163//257 162//257
f 163//258 128//258 164//258
f 128//259 163//259 130//259
f 130//260 163//260 165//260
f 130//261 165//261 126//261
f 126//262 165//262 159//262
f 166//263 167//263 168//263
f 169//264 166//264 168//264
f 170//265 171//265 147//265
f 170//266 168//266 171//266
f 170//267 169//267 168//267
f 172//268 169//268 170//268
f 136//269 135//269 138//269
f 136//270 138//270 137//270
f 141//271 139//271 142//271
f 140//272 139//272 141//272
f 173//273 149//273 174//273
f 174//274 149//274 148//274
f 123//275 175//275 148//275
f 150//276 175//276 123//276
f 176//277 122//277 149//277
f 176//278 151//278 122//278
f 159//279 177//279 158//279
f 159//280 174//280 177//280
f 174//281 175//281 177//281
f 174//282 148//282 175//282
f 178//283 165//283 163//283
f 173//284 165//284 178//284
f 176//285 173//285 178//285
f 149//286 173//286 176//286
f 159//287 165//287 174//287
f 165//288 173//288 174//288
